<?xml version="1.0" encoding="utf-8"?>
<svg viewBox="50.803 50.792 372.078 371.552" xmlns="http://www.w3.org/2000/svg" xmlns:xlink="http://www.w3.org/1999/xlink" xmlns:bx="https://boxy-svg.com">
  <defs>
    <linearGradient id="gradient-1" bx:pinned="true">
      <stop offset="0.046" style="stop-color: rgb(255, 203, 85);"/>
      <stop offset="1" style="stop-color: rgb(255, 4, 136);"/>
    </linearGradient>
    <linearGradient id="gradient-1-1" gradientUnits="userSpaceOnUse" x1="282.297" y1="43.983" x2="282.297" y2="403.353" xlink:href="#gradient-1"/>
  </defs>
  <path d="M 282.297 223.668 m -179.685 0 a 179.685 179.685 0 1 0 359.37 0 a 179.685 179.685 0 1 0 -359.37 0 Z M 282.297 223.668 m -61.093 0 a 61.093 61.093 0 0 1 122.186 0 a 61.093 61.093 0 0 1 -122.186 0 Z" style="fill: url(#gradient-1-1);" transform="matrix(-0.729587, 0.683888, -0.683888, -0.729587, 594.386788, 206.495345)" bx:shape="ring 282.297 223.668 61.093 61.093 179.685 179.685 1@e1aecca7"/>
  <path d="M 323.414 339.781 m -60.996 0 a 60.996 60.996 0 1 0 121.992 0 a 60.996 60.996 0 1 0 -121.992 0 Z M 323.414 339.781 m -6.099 0 a 6.099 6.099 0 0 1 12.198 0 a 6.099 6.099 0 0 1 -12.198 0 Z" style="" transform="matrix(-0.727829, 0.685759, -0.685759, -0.727829, 704.208169, 262.127861)" bx:shape="ring 323.414 339.781 6.099 6.099 60.996 60.996 1@31f23b83"/>
  <path d="M 300.453 278.227 m -81.507 0 a 81.507 81.507 0 1 0 163.014 0 a 81.507 81.507 0 1 0 -163.014 0 Z M 300.453 278.227 m -59.5 0 a 59.5 59.5 0 0 1 119 0 a 59.5 59.5 0 0 1 -119 0 Z" style="" transform="matrix(-0.812187, 0.583397, -0.583397, -0.812187, 642.120915, 286.536355)" bx:shape="ring 300.453 278.227 59.5 59.5 81.507 81.507 1@2750ef4a"/>
  <path d="M 416.332 418.238 m -83.225 0 a 83.225 83.225 0 1 0 166.45 0 a 83.225 83.225 0 1 0 -166.45 0 Z M 416.332 418.238 m -79.896 0 a 79.896 79.896 0 0 1 159.792 0 a 79.896 79.896 0 0 1 -159.792 0 Z" style="fill: rgb(255, 255, 255);" transform="matrix(-0.646412, 0.762988, -0.762988, -0.646412, 823.951174, 189.388747)" bx:shape="ring 416.332 418.238 79.896 79.896 83.225 83.225 1@c18b7661"/>
</svg>