<?xml version="1.0" encoding="utf-8"?>
<svg viewBox="0 0 500 500" xmlns="http://www.w3.org/2000/svg" xmlns:xlink="http://www.w3.org/1999/xlink" xmlns:bx="https://boxy-svg.com">
  <defs>
    <linearGradient gradientUnits="userSpaceOnUse" x1="236.146" y1="166.16" x2="236.146" y2="387.562" id="gradient-1-2" gradientTransform="matrix(1, 0, 0, 1, 1.264471, -6.130759)" xlink:href="#gradient-1"/>
    <linearGradient id="gradient-1" bx:pinned="true">
      <title>grad</title>
      <stop offset="0.506" style="stop-color: rgb(255, 203, 85);"/>
      <stop offset="1" style="stop-color: rgb(255, 4, 138);"/>
    </linearGradient>
  </defs>
  <path d="M 213.535 226.434 m -120.324 0 a 120.324 120.324 0 1 0 240.648 0 a 120.324 120.324 0 1 0 -240.648 0 Z M 213.535 226.434 m -103.478 0 a 103.478 103.478 0 0 1 206.956 0 a 103.478 103.478 0 0 1 -206.956 0 Z" style="fill: rgb(43, 50, 54);" transform="matrix(-0.719146, 0.694859, -0.694859, -0.719146, 548.373047, 261.832611)" bx:shape="ring 213.535 226.434 103.478 103.478 120.324 120.324 1@51ee8ccc"/>
  <circle style="paint-order: fill; fill: url(#gradient-1-2);" cx="237.41" cy="270.73" r="110.701"/>
  <rect x="92" y="224.52" width="44.439" height="100.987" rx="14" ry="14" style="fill: rgb(43, 50, 54);"/>
  <rect x="334.947" y="224.015" width="44.439" height="100.987" rx="14" ry="14" style="fill: rgb(43, 50, 54);"/>
</svg>